<svg id="Livello_1" data-name="Livello 1" xmlns="http://www.w3.org/2000/svg" viewBox="0 0 1432 745"><title>mask</title><path d="M1113.5,151.5h421s-83.78,124.22,115.31,253.6a174.55,174.55,0,0,0,19.68,11c22.3,10.7,85,45.58,107.13,108.35a112.72,112.72,0,0,0,29.76,45.88c24.34,22.35,67.46,45.77,136.12,33.18v293h-275s-42-62-92-58c-69,5.52-78,58-78,58h-501s17.55-48.76-33-77.9c-1.43-.83-2.84-1.67-4.22-2.59-14.54-9.75-94-65.43-86.73-114.51,8-54-39-62-39-62s-70-13-99,56c0,0-11,26-16,86s-97,74-97,74-55,11-83,41h-28v-456s101-64,101-133,63.8-119.54,82-125c10-3,53-24,112-2s96,71,96,71,58,64,121,36c52.19-23.19,72.81-64.23,78.35-77.63a41.44,41.44,0,0,0,2.31-7.63Z" transform="translate(-510.5 -151.5)"/></svg>