<?xml version="1.0" encoding="UTF-8"?>
<svg width="723px" height="213px" viewBox="0 0 723 213" version="1.1" xmlns="http://www.w3.org/2000/svg" xmlns:xlink="http://www.w3.org/1999/xlink">
    <!-- Generator: Sketch 56.3 (81716) - https://sketch.com -->
    <title>HotBlack_Tagline_White</title>
    <desc>Created with Sketch.</desc>
    <g id="Page-1" stroke="none" stroke-width="1" fill="none" fill-rule="evenodd">
        <g id="HotBlack_Tagline_White" fill="#FFFFFF" fill-rule="nonzero">
            <path d="M0.8,0.5 L37,0.5 C66.9,0.5 87.9,20.1 87.9,48.1 C87.9,76.1 66.9,95.7 37,95.7 L0.8,95.7 L0.8,0.5 Z M36.7,78.4 C53.7,78.4 65.7,66 65.7,48.2 C65.7,30.4 53.7,18 36.7,18 L22.5,18 L22.5,78.4 L36.7,78.4 Z" id="Shape"></path>
            <polygon id="Path" points="102.8 0.5 124.6 0.5 124.6 95.8 102.8 95.8"></polygon>
            <polygon id="Path" points="142 0.5 206 0.5 206 17.9 164 17.9 164 41 203.2 41 203.2 57.9 164 57.9 164 95.7 142 95.7"></polygon>
            <polygon id="Path" points="219.1 0.5 283.1 0.5 283.1 17.9 241.2 17.9 241.2 41 280.4 41 280.4 57.9 241.2 57.9 241.2 95.7 219.1 95.7"></polygon>
            <polygon id="Path" points="296.3 0.5 363.4 0.5 363.4 17.7 318.3 17.7 318.3 39.6 358.5 39.6 358.5 55.8 318.3 55.8 318.3 78.4 364 78.4 364 95.8 296.3 95.8"></polygon>
            <path d="M378.4,0.5 L420.5,0.5 C441.6,0.5 456.3,12.3 456.3,29.5 C456.3,42.3 446,52.4 431.4,53.9 C444.3,54.9 450.3,61.8 451,73.4 L451.8,86.2 C452.1,90.7 452.5,93.4 453.6,95.9 L431.5,95.9 C430.7,93.7 430.3,90.7 430,87.9 L429.2,75.1 C428.7,66.8 424.2,64.1 415.6,64.1 L400.2,64.1 L400.2,96 L378.4,96 L378.4,0.5 L378.4,0.5 Z M419.1,46.8 C427.9,46.8 434.2,40.8 434.2,32.4 C434.2,23.8 428.1,18 419.4,18 L400.2,18 L400.2,46.9 L419.1,46.9 L419.1,46.8 Z" id="Shape"></path>
            <polygon id="Path" points="469.4 0.5 536.5 0.5 536.5 17.7 491.4 17.7 491.4 39.6 531.6 39.6 531.6 55.8 491.4 55.8 491.4 78.4 537 78.4 537 95.8 469.3 95.8 469.3 0.5"></polygon>
            <polygon id="Path" points="551.4 0.5 573.6 0.5 614.6 64.7 613.5 0.5 634.9 0.5 634.9 95.8 612.7 95.8 571.7 31.6 572.8 95.8 551.4 95.8"></polygon>
            <polygon id="Path" points="674.2 17.9 647.5 17.9 647.5 0.5 722.9 0.5 722.9 17.9 696.2 17.9 696.2 95.8 674.1 95.8 674.1 17.9"></polygon>
            <path d="M94.3,185.9 L55.5,185.9 L47.3,208.5 L26.5,208.5 L62.3,113.2 L88.6,113.2 L124.3,208.5 L102.5,208.5 L94.3,185.9 Z M88.1,169 L74.9,132.7 L61.6,169 L88.1,169 Z" id="Shape"></path>
            <path d="M129.3,178.5 L150.7,177.1 C150.7,186.9 157.9,193.8 168.4,193.8 C177.4,193.8 183.5,189 183.5,182.2 C183.5,177 179.1,173.4 172.7,172 L161.9,170 C141.8,166.1 132.2,156.5 132.2,140.6 C132.2,122.8 147.3,110.5 168.8,110.5 C190.2,110.5 205.4,123.7 206,142.6 L184.5,143.8 C184.2,134.1 177.6,127.3 168.2,127.3 C159.8,127.3 153.8,131.8 153.8,138.5 C153.8,144.2 157.3,148 164,149.4 L174.8,151.4 C195.4,155.3 205.3,164.7 205.3,180.1 C205.3,198.3 189.9,210.90056 167.7,210.90056 C145.1,211 129.3,197.7 129.3,178.5 Z" id="Path"></path>
            <path d="M248,171 L248,156.8 L248,113.8 L270.1,113.8 L270.1,156.8 L270.1,170.3 C270.1,183.4 277.6,191.4 289.6,191.4 C301.6,191.4 309.1,183.4 309.1,170.3 L309.1,113.8 L331,113.8 L331,171 C331,194.8 314.1,211 289.5,211 C264.9,211 248,194.8 248,171 Z" id="Path"></path>
            <path d="M343,178.5 L364.4,177.1 C364.4,186.9 371.6,193.8 382.1,193.8 C391.1,193.8 397.2,189 397.2,182.2 C397.2,177 392.8,173.4 386.4,172 L375.6,170 C355.5,166.1 345.9,156.5 345.9,140.6 C345.9,122.8 361,110.5 382.5,110.5 C403.9,110.5 419.1,123.7 419.7,142.6 L398.2,143.8 C397.9,134.1 391.3,127.3 381.9,127.3 C373.5,127.3 367.5,131.8 367.5,138.5 C367.5,144.2 371,148 377.7,149.4 L388.5,151.4 C409.1,155.3 419,164.7 419,180.1 C419,198.3 403.6,210.90056 381.4,210.90056 C358.8,211 343,197.7 343,178.5 Z" id="Path"></path>
            <path d="M431.3,181 C430.3,174.8 431.2,166.1 435.1,155.7 L451.6,111.9 L471.3,119 L454.9,162.7 C453.3,167 452.3,172.8 453.1,178 C454.8,188.2 463.6,194.1 474.3,192.3 C483.6,190.8 488.7,185.7 492.8,174.8 L509.5,130.4 L529.3,137.5 L512.5,181.9 C506,199.2 494.8,208.8 477.5,211.6 C454,215.5 434.8,202.8 431.3,181 Z" id="Path"></path>
            <path d="M589.4,185.9 L550.6,185.9 L542.4,208.5 L521.6,208.5 L557.4,113.2 L583.7,113.2 L619.4,208.5 L597.6,208.5 L589.4,185.9 Z M583.2,169 L570,132.7 L556.8,169 L583.2,169 Z" id="Shape"></path>
            <polygon id="Path" points="631.2 113.2 653.3 113.2 653.3 190.7 691.4 190.7 691.4 208.5 631.2 208.5 631.2 113.2"></polygon>
        </g>
    </g>
</svg>